# xmcd
#
# Track frame offsets:
#	150
#	12940
#	28757
#	44962
#	73097
#	101167
#	135535
#
# Disc length: 2028 seconds
# Revision: 0
# Processed by: cddbd v1.5.2PL0 Copyright (c) Steve Scherf et al.
# Submitted via: dBpowerAMP V12.0
#
DISCID=6507ea07
DTITLE=Daniel Bedengfield - Gotta Get Thru This [Single]
DYEAR=2002
DGENRE=House
TTITLE0=Gotta Get Thru This [Citizen S. Radio Edit]
TTITLE1=Gotta Get Thru This [Video Edit]
TTITLE2=Gotta Get Thru This [Acoustic Version]
TTITLE3=Gotta Get Thru This [Passengerz Violation Vox Club Mix]
TTITLE4=Gotta Get Thru This [Passengerz Violation Dub]
TTITLE5=Gotta Get Thru This [Stella Browne Vocal Mix]
TTITLE6=Gotta Get Thru This [Crossover/Rhythmic Remix By Allstar]
EXTD=
EXTT0=
EXTT1=
EXTT2=
EXTT3=
EXTT4=
EXTT5=
EXTT6=
PLAYORDER=
